#N canvas 646 231 545 485 10;
#N canvas 15 0 504 513 consignes 1;
#X obj 23 -35 vsl 15 128 -50 50 0 0 empty empty speed 0 -9 0 10 -261682
-1 -1 10550 1;
#X obj 118 -28 hsl 128 15 -180 180 0 0 empty empty bias -2 -8 0 10
-261682 -1 -1 6350 1;
#X floatatom 23 116 5 0 0 0 - - -;
#X floatatom 115 5 5 0 0 0 - - -;
#X msg 67 -74 0;
#X obj 26 267 hsl 128 15 -100 100 0 0 empty empty empty -2 -8 0 10
-204800 -1 -1 8400 1;
#X obj 180 267 hsl 128 15 -100 100 0 0 empty empty empty -2 -8 0 10
-204800 -1 -1 8450 1;
#X floatatom 23 328 5 0 0 0 - - -;
#X floatatom 177 329 5 0 0 0 - - -;
#X text 159 149 bang pour activer la mise à jour;
#X obj 23 359 outlet;
#X obj 177 360 outlet;
#X obj 67 -103 receive reset;
#X text 264 -35 angle de consigne;
#X text 163 -100 remise à zéro des consignes depuis le patch principal
;
#X obj 89 116 sin;
#X obj 144 118 cos;
#X obj 115 72 * 6.28319;
#X obj 115 38 / 360;
#X obj 23 196 *;
#X obj 144 193 *;
#X obj 23 233 +;
#X obj 177 233 -;
#X obj 114 147 bng 15 250 50 0 empty empty empty 17 7 0 10 -262144
-1 -1;
#X text 182 70 conversion de degrés en radians;
#X text 176 114 conversion de polaire à cartésien;
#X text 211 231 conversion en gauche/droite;
#X obj 23 298 int;
#X obj 177 301 int;
#X connect 0 0 2 0;
#X connect 1 0 3 0;
#X connect 2 0 19 0;
#X connect 2 0 20 0;
#X connect 3 0 18 0;
#X connect 4 0 0 0;
#X connect 4 0 1 0;
#X connect 5 0 27 0;
#X connect 6 0 28 0;
#X connect 7 0 10 0;
#X connect 8 0 11 0;
#X connect 12 0 4 0;
#X connect 15 0 19 1;
#X connect 15 0 23 0;
#X connect 16 0 20 1;
#X connect 16 0 23 0;
#X connect 17 0 15 0;
#X connect 17 0 16 0;
#X connect 18 0 17 0;
#X connect 19 0 21 0;
#X connect 19 0 22 1;
#X connect 20 0 21 1;
#X connect 20 0 22 0;
#X connect 21 0 5 0;
#X connect 22 0 6 0;
#X connect 23 0 20 0;
#X connect 23 0 19 0;
#X connect 27 0 7 0;
#X connect 28 0 8 0;
#X restore 199 208 pd consignes;
#X floatatom 199 246 5 0 0 0 - - -;
#X floatatom 268 244 5 0 0 0 - - -;
#N canvas 277 61 452 584 simu-odometrie 0;
#X obj 55 180 inlet;
#X obj 344 182 inlet;
#X obj 180 179 inlet;
#X floatatom 344 216 5 0 0 0 - - -;
#X floatatom 180 213 5 0 0 0 - - -;
#X obj 66 208 bng 15 250 50 0 empty empty empty 17 7 0 10 -262144 -1
-1;
#X text 125 160 vitesse gauche;
#X text 304 161 vitesse droite;
#X floatatom 132 399 5 0 0 0 - - -;
#X floatatom 293 398 5 0 0 0 - - -;
#X text 99 450 incrément gauche;
#X text 269 450 incrément droit;
#X obj 132 426 outlet;
#X obj 293 428 outlet;
#X obj 132 277 +;
#X obj 293 309 +;
#X msg 35 323 0;
#X obj 35 288 receive reset;
#X obj 180 248 * 0.01;
#X floatatom 132 251 5 0 0 0 - - -;
#X obj 132 307 +;
#X floatatom 293 251 5 0 0 0 - - -;
#X obj 293 278 +;
#X text 12 8 Simulation de l'odométrie par intégration de la vitesse.
Le métronome global déclenche l'intégration (ne prends pas en compte
le temps pour l'instant);
#X text 12 68 Une astuce est nécessaire pour ne déclencher la somme
que sur métronome. Pour cela \, chaque opérande est considérée en entrée
"froide" (à droite du +) et pas en "chaude" (qui déclenche le calcul).
;
#X obj 344 247 * 0.01;
#X obj 11 257 receive reset-odo;
#X obj 132 370 int;
#X obj 132 340 f;
#X obj 293 367 int;
#X obj 293 340 f;
#X connect 0 0 5 0;
#X connect 1 0 3 0;
#X connect 2 0 4 0;
#X connect 3 0 25 0;
#X connect 4 0 18 0;
#X connect 5 0 19 0;
#X connect 5 0 21 0;
#X connect 8 0 12 0;
#X connect 9 0 13 0;
#X connect 14 0 20 0;
#X connect 15 0 30 0;
#X connect 16 0 28 0;
#X connect 16 0 30 0;
#X connect 17 0 16 0;
#X connect 18 0 14 1;
#X connect 19 0 14 0;
#X connect 20 0 28 0;
#X connect 21 0 22 0;
#X connect 22 0 15 0;
#X connect 25 0 22 1;
#X connect 26 0 16 0;
#X connect 27 0 8 0;
#X connect 28 0 20 1;
#X connect 28 0 27 0;
#X connect 29 0 9 0;
#X connect 30 0 29 0;
#X connect 30 0 15 1;
#X restore 150 282 pd simu-odometrie;
#X obj 62 185 tgl 15 0 empty empty empty 17 7 0 10 -262144 -1 -1 1
1;
#X floatatom 113 187 5 0 0 0 - - -;
#X obj 62 221 metro 500;
#X text 17 143 Génération d'une horloge régulière pour la simulation
;
#X text 189 167 Sous-patch pour gestion des consignes de vitesse (UI)
;
#X text 25 17 Un projet de démonstration de l'odométrie pour le club
Pobot - (c) Julien Holtzer / mars 2010;
#X text 316 237 vitesses de commande des moteurs;
#X floatatom 150 322 4 0 0 0 - - -;
#X floatatom 249 320 4 0 0 0 - - -;
#X msg 256 89 reset;
#X obj 256 119 send reset;
#X text 254 65 Remise à zéro de la démo;
#X text 277 296 incréments des odomètres;
#N canvas 412 369 772 565 calcul-position 0;
#X obj 202 67 inlet;
#X obj 339 67 inlet;
#X text 178 46 odométrie gauche;
#X text 317 47 odométrie droite;
#X obj 164 495 outlet;
#X obj 249 494 outlet;
#X obj 383 492 outlet;
#X text 166 513 x;
#X text 248 512 y;
#X text 381 512 theta;
#X msg 522 445 0;
#X obj 521 416 receive reset;
#X floatatom 164 462 5 0 0 0 - - -;
#X floatatom 249 462 5 0 0 0 - - -;
#X floatatom 383 462 5 0 0 0 - - -;
#X text 564 443 remise à zéro globale de la démo;
#X obj 187 129 +;
#X obj 46 178 send reset-odo;
#X obj 92 63 inlet;
#X obj 92 114 bng 15 250 50 0 empty empty empty 17 7 0 10 -262144 -1
-1;
#X floatatom 167 93 5 0 0 0 - - -;
#X floatatom 302 91 5 0 0 0 - - -;
#X obj 324 129 +;
#X obj 187 170 +;
#X obj 325 169 -;
#X floatatom 325 238 5 0 0 0 - - -;
#X text 88 3 Transformation;
#X obj 187 196 / 2;
#X floatatom 187 328 5 0 0 0 - - -;
#X obj 187 228 *;
#X obj 218 211 r mm_par_tick;
#X obj 325 207 *;
#X obj 360 190 r deg_par_tick;
#X text 366 234 variation de degrés depuis le dernier calcul;
#X obj 250 332 sin;
#X obj 325 332 cos;
#X obj 187 403 +;
#X obj 187 367 *;
#X obj 266 402 +;
#X obj 266 367 *;
#X text 76 327 distance moyenne;
#X floatatom 98 384 5 0 0 0 - - -;
#X floatatom 325 384 5 0 0 0 - - -;
#X obj 325 290 f;
#X obj 325 263 +;
#N canvas 50 166 309 255 conversion-rad-deg 0;
#X obj 33 18 inlet;
#X text 81 20 angle en radians;
#X obj 33 207 outlet;
#X text 85 204 angle en degrés entre -180 et 180;
#X floatatom 33 182 5 0 0 0 - - -;
#X floatatom 33 43 5 0 0 0 - - -;
#X obj 88 81 pi;
#X obj 33 98 /;
#X obj 88 54 loadbang;
#X obj 33 71 * 180;
#X obj 33 126 mod 360;
#X obj 33 154 - 180;
#X connect 0 0 5 0;
#X connect 4 0 2 0;
#X connect 5 0 9 0;
#X connect 6 0 7 1;
#X connect 7 0 10 0;
#X connect 8 0 6 0;
#X connect 9 0 7 0;
#X connect 10 0 11 0;
#X connect 11 0 4 0;
#X restore 383 331 pd conversion-rad-deg;
#X obj 164 433 f;
#X obj 249 434 f;
#X connect 0 0 16 1;
#X connect 1 0 22 1;
#X connect 10 0 14 0;
#X connect 10 0 13 0;
#X connect 10 0 12 0;
#X connect 11 0 10 0;
#X connect 12 0 4 0;
#X connect 13 0 5 0;
#X connect 14 0 6 0;
#X connect 16 0 23 0;
#X connect 16 0 24 0;
#X connect 18 0 19 0;
#X connect 19 0 16 0;
#X connect 19 0 22 0;
#X connect 19 0 17 0;
#X connect 20 0 16 0;
#X connect 21 0 22 0;
#X connect 22 0 23 1;
#X connect 22 0 24 1;
#X connect 23 0 27 0;
#X connect 24 0 31 0;
#X connect 25 0 44 0;
#X connect 27 0 29 0;
#X connect 28 0 37 0;
#X connect 28 0 39 0;
#X connect 29 0 28 0;
#X connect 30 0 29 1;
#X connect 31 0 25 0;
#X connect 32 0 31 1;
#X connect 34 0 37 1;
#X connect 35 0 39 1;
#X connect 36 0 46 0;
#X connect 37 0 36 0;
#X connect 37 0 41 0;
#X connect 38 0 47 0;
#X connect 39 0 38 0;
#X connect 39 0 42 0;
#X connect 43 0 44 1;
#X connect 43 0 45 0;
#X connect 43 0 35 0;
#X connect 43 0 34 0;
#X connect 44 0 43 0;
#X connect 45 0 14 0;
#X connect 46 0 36 1;
#X connect 46 0 12 0;
#X connect 47 0 13 0;
#X connect 47 0 38 1;
#X restore 128 380 pd calcul-position;
#X obj 34 290 tgl 15 0 empty empty empty 17 7 0 10 -262144 -1 -1 1
1;
#X floatatom 91 291 5 0 0 0 - - -;
#X obj 34 325 metro 1500;
#N canvas 451 105 545 527 parametres 0;
#X msg 58 22 40;
#X text 171 44 nombre d'incréments par tour de roue;
#X text 160 97 diamètre d'une roue en mm;
#X msg 58 73 55;
#X msg 58 127 131;
#X text 158 150 entraxe du robot en mm;
#X obj 76 229 pi;
#X obj 61 260 *;
#X floatatom 61 289 7 0 0 0 - - -;
#X obj 58 97 s roue_diametre;
#X obj 58 151 s robot_entraxe;
#X obj 61 199 r roue_diametre;
#X obj 58 45 s roue_increments;
#X text 113 288 périmètre d'une roue;
#X text 70 -19 Les différents paramètres numériques du robot;
#X text 102 384 mm par pas d'encodeurs;
#X obj 76 323 r roue_increments;
#X obj 61 352 /;
#X floatatom 61 386 5 0 0 0 - - -;
#X obj 4 -17 loadbang;
#X obj 310 220 r robot_entraxe;
#X obj 325 251 pi;
#X obj 310 279 *;
#X floatatom 310 312 5 0 0 0 - - -;
#X text 354 299 tour du robot (aux roues);
#X text 341 403 degrés par pas d'encodeurs;
#X floatatom 295 402 5 0 0 0 - - -;
#X obj 61 420 s mm_par_tick;
#X obj 295 436 s deg_par_tick;
#X obj 295 338 /;
#X obj 295 189 r mm_par_tick;
#X obj 295 371 *;
#X obj 373 337 pi;
#X obj 333 354 * 2;
#X obj 407 320 loadbang;
#X connect 0 0 12 0;
#X connect 3 0 9 0;
#X connect 4 0 10 0;
#X connect 6 0 7 1;
#X connect 7 0 8 0;
#X connect 8 0 17 0;
#X connect 11 0 7 0;
#X connect 16 0 17 1;
#X connect 17 0 18 0;
#X connect 18 0 27 0;
#X connect 19 0 0 0;
#X connect 19 0 3 0;
#X connect 19 0 4 0;
#X connect 20 0 22 0;
#X connect 21 0 22 1;
#X connect 22 0 23 0;
#X connect 23 0 29 1;
#X connect 26 0 28 0;
#X connect 29 0 31 0;
#X connect 30 0 29 0;
#X connect 31 0 26 0;
#X connect 32 0 33 0;
#X connect 33 0 31 1;
#X connect 34 0 32 0;
#X restore 33 73 pd parametres;
#N canvas 746 558 473 312 display-odo 0;
#X obj 37 20 inlet;
#X obj 93 19 inlet;
#N canvas 0 0 450 300 (subpatch) 0;
#X array incr_gauche 100 float 3;
#A 0 0 0 0 0 0 0 0 0 0 0 0 0 0 0 0 0 0 0 0 0 0 0 0 0 0 0 0 0 0 0 0
0 0 0 0 0 0 0 0 0 0 0 0 0 0 0 0 0 0 0 0 0 0 0 0 0 0 0 0 0 0 0 0 0 0
0 0 0 0 0 0 0 0 0 0 0 0 0 0 0 0 0 0 0 0 0 0 0 0 0 0 0 0 0 0 0 0 0 0
0;
#X coords 0 100 99 -100 200 140 1;
#X restore 20 163 graph;
#N canvas 0 0 450 300 (subpatch) 0;
#X array incr_droite 100 float 3;
#A 0 0 0 0 0 0 0 0 0 0 0 0 0 0 0 0 0 0 0 0 0 0 0 0 0 0 0 0 0 0 0 0
0 0 0 0 0 0 0 0 0 0 0 0 0 0 0 0 0 0 0 0 0 0 0 0 0 0 0 0 0 0 0 0 0 0
0 0 0 0 0 0 0 0 0 0 0 0 0 0 0 0 0 0 0 0 0 0 0 0 0 0 0 0 0 0 0 0 0 0
0;
#X coords 0 100 99 -100 200 140 1;
#X restore 246 164 graph;
#X obj 315 17 inlet;
#X obj 315 46 f;
#X obj 352 47 + 1;
#X obj 245 63 mod 100;
#X floatatom 245 96 5 0 0 0 - - -;
#X obj 37 112 tabwrite incr_gauche;
#X obj 93 71 tabwrite incr_droite;
#X connect 0 0 9 0;
#X connect 1 0 10 0;
#X connect 4 0 5 0;
#X connect 5 0 6 0;
#X connect 5 0 7 0;
#X connect 6 0 5 1;
#X connect 7 0 8 0;
#X connect 8 0 9 1;
#X connect 8 0 10 1;
#X restore 273 381 pd display-odo;
#N canvas 950 0 281 452 display-pos 1;
#X obj 208 126 inlet;
#X obj 59 23 inlet;
#X obj 98 78 inlet;
#X obj 20 -77 gemhead;
#X obj 208 189 / 360;
#X obj 59 52 / 1000;
#X obj 98 105 / 1000;
#X obj 20 138 translateXYZ 0 0 2.5;
#X obj 21 171 translateXYZ -0.5 -0.5 0;
#X obj 20 -43 pix_image arrow.png;
#X obj 20 241 pix_draw;
#X obj 20 206 rotateXYZ 0 0 0;
#X obj 20 272 circle 0.1;
#X connect 0 0 4 0;
#X connect 1 0 5 0;
#X connect 2 0 6 0;
#X connect 3 0 9 0;
#X connect 4 0 11 3;
#X connect 5 0 7 1;
#X connect 6 0 7 2;
#X connect 7 0 8 0;
#X connect 8 0 11 0;
#X connect 9 0 7 0;
#X connect 10 0 12 0;
#X connect 11 0 10 0;
#X restore 140 453 pd display-pos;
#X obj 377 329 tgl 15 0 empty empty empty 17 7 0 10 -262144 -1 -1 1
1;
#X floatatom 422 330 5 0 0 0 - - -;
#X obj 377 364 metro 50;
#X floatatom 128 414 5 0 0 0 - - -;
#X floatatom 180 414 5 0 0 0 - - -;
#X floatatom 233 414 5 0 0 0 - - -;
#N canvas 744 93 404 162 config-display 1;
#X msg 18 19 dimen 500 500 \, create \, 1;
#X obj 18 87 gemwin;
#X msg 37 51 destroy;
#X connect 0 0 1 0;
#X connect 2 0 1 0;
#X restore 32 102 pd config-display;
#X obj 42 370 r reset;
#X msg 42 397 0;
#X connect 0 0 1 0;
#X connect 0 1 2 0;
#X connect 1 0 3 1;
#X connect 2 0 3 2;
#X connect 3 0 11 0;
#X connect 3 1 12 0;
#X connect 4 0 6 0;
#X connect 5 0 6 1;
#X connect 6 0 3 0;
#X connect 11 0 17 1;
#X connect 11 0 22 0;
#X connect 12 0 17 2;
#X connect 12 0 22 1;
#X connect 13 0 14 0;
#X connect 17 0 27 0;
#X connect 17 1 28 0;
#X connect 17 2 29 0;
#X connect 18 0 20 0;
#X connect 19 0 20 1;
#X connect 20 0 17 0;
#X connect 24 0 26 0;
#X connect 25 0 26 1;
#X connect 26 0 22 2;
#X connect 27 0 23 0;
#X connect 28 0 23 1;
#X connect 29 0 23 2;
#X connect 31 0 32 0;
#X connect 32 0 27 0;
#X connect 32 0 28 0;
#X connect 32 0 29 0;
