#N canvas 625 38 502 480 10;
#X text 26 25 Test d'incrément sur une interruption externe. L'objectif
est de pouvoir gérer des odomètres.;
#X msg 45 128 close;
#X text 128 168 <- list devices;
#X obj 45 213 send \$0-arduino;
#X msg 72 168 devices;
#X text 81 94 select the serial port;
#X text 90 128 close the serial port;
#X msg 25 94 open 38;
#X obj 175 259 send \$0-arduino-out;
#X obj 175 215 receive \$0-arduino;
#X obj 175 238 arduino 1;
#X text 187 97 comment;
#X text 244 236 <- Arduino object;
#X msg 21 311 pinMode 2 input;
#X obj 21 348 send \$0-arduino;
#X obj 174 306 r \$0-arduino-out;
#X obj 174 328 route digital;
#X obj 174 359 route 2;
#X obj 174 435 print;
#X floatatom 231 397 5 0 0 0 - - -;
#X obj 182 396 +;
#X connect 1 0 3 0;
#X connect 4 0 3 0;
#X connect 7 0 3 0;
#X connect 9 0 10 0;
#X connect 10 0 8 0;
#X connect 13 0 14 0;
#X connect 15 0 16 0;
#X connect 16 0 17 0;
#X connect 17 0 20 0;
#X connect 19 0 20 1;
#X connect 19 0 18 0;
#X connect 20 0 19 0;
