#N canvas 180 436 502 280 10;
#X text 33 12 Test d'incrément sur une interruption externe. L'objectif
est de pouvoir gérer des odomètres.;
#X msg 45 127 close;
#X text 128 168 <- list devices;
#X obj 45 213 send \$0-arduino;
#X msg 72 168 devices;
#X text 81 94 select the serial port;
#X text 90 128 close the serial port;
#X msg 25 94 open 38;
#X obj 175 259 send \$0-arduino-out;
#X obj 175 215 receive \$0-arduino;
#X obj 175 238 arduino 1;
#X text 244 236 <- Arduino object;
#N canvas 606 566 582 332 servos 0;
#X obj 33 30 send \$0-arduino;
#X msg 53 -26 pinMode 9 servo;
#X msg 53 3 pinMode 10 servo;
#X obj 42 151 hsl 150 17 0 1 0 0 empty empty Servo_control_(0-1) -2
-6 1 10 -260818 -1 -1 4900 1;
#X obj 39 249 s \$0-arduino;
#X msg 39 209 analog 9 \$1;
#X obj 325 158 hsl 150 17 0 1 0 0 empty empty Servo_control_(0-1) -2
-6 1 10 -260818 -1 -1 3800 1;
#X obj 281 244 s \$0-arduino;
#X msg 281 209 analog 10 \$1;
#X obj 307 31 send \$0-arduino;
#X msg 325 -25 pinMode 9 input;
#X msg 326 2 pinMode 10 input;
#X floatatom 39 107 5 0 0 0 - - -;
#X msg 39 79 bang;
#X floatatom 134 210 5 0 0 0 - - -;
#X obj 134 241 * 180;
#X floatatom 134 276 5 0 0 0 - - -;
#X msg 282 79 bang;
#X floatatom 282 114 5 0 0 0 - - -;
#X obj 396 240 * 180;
#X floatatom 396 275 5 0 0 0 - - -;
#X text 448 -15 <-- arrêt des servos;
#X text 166 -16 <-- démarrage des servos;
#X floatatom 396 208 5 0 0 0 - - -;
#X connect 1 0 0 0;
#X connect 2 0 0 0;
#X connect 3 0 5 0;
#X connect 3 0 14 0;
#X connect 5 0 4 0;
#X connect 6 0 8 0;
#X connect 6 0 23 0;
#X connect 8 0 7 0;
#X connect 10 0 9 0;
#X connect 11 0 9 0;
#X connect 12 0 3 0;
#X connect 13 0 12 0;
#X connect 14 0 15 0;
#X connect 15 0 16 0;
#X connect 17 0 18 0;
#X connect 18 0 6 0;
#X connect 19 0 20 0;
#X connect 23 0 19 0;
#X restore 334 123 pd servos;
#N canvas 200 506 961 300 oscillo 0;
#X obj 27 85 r \$0-arduino-out;
#X floatatom 27 172 5 0 0 0 - - -;
#X obj 13 58 send \$0-arduino;
#X obj 27 107 route analog;
#X obj 27 138 route 0;
#X obj 27 218 tabwrite Oscillo;
#X floatatom 191 197 5 0 0 0 - - -;
#X obj 229 124 + 1;
#X obj 191 91 bng 15 250 50 0 empty empty empty 0 -6 0 8 -262144 -1
-1;
#X obj 191 54 metro 500;
#X obj 191 23 tgl 15 0 empty empty empty 17 7 0 10 -262144 -1 -1 1
1;
#X obj 191 122 f;
#X floatatom 242 21 5 0 0 0 - - -;
#X text 242 -1;
#X msg 242 -14 500;
#X msg 292 -15 50;
#X msg 333 -16 5;
#N canvas 0 0 450 300 (subpatch) 0;
#X array Oscillo 400 float 0;
#X coords 0 1 399 0 400 140 1;
#X restore 441 33 graph;
#X obj 191 159 mod 400;
#X msg 13 -4 pinMode 14 analog;
#X msg 28 23 pinMode 14 output;
#X connect 0 0 3 0;
#X connect 1 0 5 0;
#X connect 3 0 4 0;
#X connect 4 0 1 0;
#X connect 6 0 5 1;
#X connect 7 0 11 1;
#X connect 8 0 11 0;
#X connect 9 0 8 0;
#X connect 10 0 9 0;
#X connect 11 0 7 0;
#X connect 11 0 18 0;
#X connect 12 0 9 1;
#X connect 14 0 12 0;
#X connect 15 0 12 0;
#X connect 16 0 12 0;
#X connect 18 0 6 0;
#X connect 19 0 2 0;
#X connect 20 0 2 0;
#X restore 338 159 pd oscillo;
#N canvas 980 546 252 347 counters 0;
#X obj -17 45 send \$0-arduino;
#X obj -16 80 r \$0-arduino-out;
#X obj -16 102 route digital;
#X floatatom 71 216 5 0 0 0 - - -;
#X msg 71 179 bang;
#X obj 99 45 send \$0-arduino;
#X obj -4 262 f;
#X floatatom -4 300 5 0 0 0 - - -;
#X obj 31 263 + 1;
#X obj -15 199 edge;
#X obj -15 232 bng 15 250 50 0 empty empty empty 17 7 0 10 -262144
-1 -1;
#X obj 6 232 bng 15 250 50 0 empty empty empty 17 7 0 10 -262144 -1
-1;
#X floatatom -15 164 5 0 0 0 - - -;
#X msg -17 9 pinMode 3 input;
#X msg 99 9 pinMode 3 output;
#X obj -15 134 route 3;
#X connect 1 0 2 0;
#X connect 2 0 15 0;
#X connect 3 0 6 0;
#X connect 4 0 3 0;
#X connect 6 0 7 0;
#X connect 6 0 8 0;
#X connect 8 0 6 1;
#X connect 9 0 10 0;
#X connect 9 1 11 0;
#X connect 10 0 6 0;
#X connect 11 0 6 0;
#X connect 12 0 9 0;
#X connect 13 0 0 0;
#X connect 14 0 5 0;
#X connect 15 0 12 0;
#X restore 335 90 pd counters;
#X text 258 115 comment;
#X connect 1 0 3 0;
#X connect 4 0 3 0;
#X connect 7 0 3 0;
#X connect 9 0 10 0;
#X connect 10 0 8 0;
